<svg id="Layer_1" data-name="Layer 1" xmlns="http://www.w3.org/2000/svg" viewBox="0 0 450 100"><defs><style>.cls-1,.cls-2{fill:none;stroke:#fff;stroke-miterlimit:10;}.cls-1{stroke-width:6.23px;}.cls-2{stroke-width:6.34px;}.cls-3{fill:#fff;}</style></defs><title>prize</title><polyline class="cls-1" points="29.67 84.6 5.4 84.6 5.4 15.4 29.67 15.4"/><polyline class="cls-2" points="420.11 85.23 444.82 85.23 444.82 14.77 420.11 14.77"/><path class="cls-3" d="M52.17,53.52h.06l-12.59,19H30.52l9-13.17a14.31,14.31,0,0,1-10.28-4,13.62,13.62,0,0,1-3.92-10,13.37,13.37,0,0,1,4-10.1,14.64,14.64,0,0,1,10.56-3.93A14.66,14.66,0,0,1,50.5,35.22a13.37,13.37,0,0,1,4.1,10.1A14.11,14.11,0,0,1,52.17,53.52ZM39.93,51.91c3.93,0,6.76-2.6,6.76-6.59s-2.83-6.52-6.76-6.52a6.56,6.56,0,1,0,0,13.11Z"/><path class="cls-3" d="M52.11,71.83a4.9,4.9,0,1,1,6.93,0A4.93,4.93,0,0,1,52.11,71.83Z"/><path class="cls-3" d="M67.88,67.61c-2.83-3.87-4.28-9-4.28-15.3s1.45-11.43,4.28-15.24a14,14,0,0,1,11.89-5.78,13.88,13.88,0,0,1,11.89,5.78c2.83,3.81,4.28,8.89,4.28,15.24s-1.45,11.43-4.28,15.3a14,14,0,0,1-11.89,5.72A14.12,14.12,0,0,1,67.88,67.61ZM79.77,39c-5.37,0-8.2,4.68-8.2,13.28s2.83,13.22,8.2,13.22S88,60.86,88,52.31,85.14,39,79.77,39Z"/><path class="cls-3" d="M104.25,67.61c-2.83-3.87-4.27-9-4.27-15.3s1.44-11.43,4.27-15.24a15.13,15.13,0,0,1,23.79,0c2.83,3.81,4.27,8.89,4.27,15.24s-1.44,11.43-4.27,15.3a15.23,15.23,0,0,1-23.79,0ZM116.14,39c-5.37,0-8.2,4.68-8.2,13.28s2.83,13.22,8.2,13.22,8.26-4.67,8.26-13.22S121.51,39,116.14,39Z"/><path class="cls-3" d="M140.62,67.61c-2.83-3.87-4.27-9-4.27-15.3s1.44-11.43,4.27-15.24a14,14,0,0,1,11.89-5.78,13.89,13.89,0,0,1,11.9,5.78c2.83,3.81,4.27,8.89,4.27,15.24s-1.44,11.43-4.27,15.3a14,14,0,0,1-11.9,5.72A14.13,14.13,0,0,1,140.62,67.61ZM152.51,39c-5.36,0-8.19,4.68-8.19,13.28s2.83,13.22,8.19,13.22,8.26-4.67,8.26-13.22S157.88,39,152.51,39Z"/><path class="cls-3" d="M173.24,71.83a4.9,4.9,0,1,1,6.93,0A4.91,4.91,0,0,1,173.24,71.83Z"/><path class="cls-3" d="M189,67.61c-2.83-3.87-4.27-9-4.27-15.3s1.44-11.43,4.27-15.24a14,14,0,0,1,11.9-5.78,13.88,13.88,0,0,1,11.89,5.78c2.83,3.81,4.27,8.89,4.27,15.24s-1.44,11.43-4.27,15.3a14,14,0,0,1-11.89,5.72A14.14,14.14,0,0,1,189,67.61ZM200.9,39c-5.37,0-8.2,4.68-8.2,13.28s2.83,13.22,8.2,13.22,8.25-4.67,8.25-13.22S206.27,39,200.9,39Z"/><path class="cls-3" d="M225.37,67.61c-2.83-3.87-4.27-9-4.27-15.3s1.44-11.43,4.27-15.24a14,14,0,0,1,11.9-5.78,13.88,13.88,0,0,1,11.89,5.78c2.83,3.81,4.28,8.89,4.28,15.24s-1.45,11.43-4.28,15.3a14,14,0,0,1-11.89,5.72A14.14,14.14,0,0,1,225.37,67.61ZM237.27,39c-5.37,0-8.2,4.68-8.2,13.28s2.83,13.22,8.2,13.22,8.26-4.67,8.26-13.22S242.64,39,237.27,39Z"/><path class="cls-3" d="M261.75,67.61c-2.83-3.87-4.28-9-4.28-15.3s1.45-11.43,4.28-15.24a14,14,0,0,1,11.89-5.78,13.87,13.87,0,0,1,11.89,5.78c2.83,3.81,4.28,8.89,4.28,15.24s-1.45,11.43-4.28,15.3a14,14,0,0,1-11.89,5.72A14.12,14.12,0,0,1,261.75,67.61ZM273.64,39c-5.37,0-8.2,4.68-8.2,13.28s2.83,13.22,8.2,13.22,8.26-4.67,8.26-13.22S279,39,273.64,39Z"/><path class="cls-3" d="M320,72.52,306.43,32.1h8.66L325,63.17l9.81-31.07h8.72L329.87,72.52Z"/><path class="cls-3" d="M370.75,32.1h8V72.52h-6.06L355.33,47.81V72.52h-8V32.1h6.06l17.32,24.66Z"/><path class="cls-3" d="M404.29,32.1a18.41,18.41,0,0,1,13.86,5.83,19.83,19.83,0,0,1,5.6,14.38,19.83,19.83,0,0,1-5.6,14.38,18.38,18.38,0,0,1-13.86,5.83H388.24V56.18h-3.4V49.54h3.4V32.1Zm0,32.8a11.22,11.22,0,0,0,8.55-3.47,12.83,12.83,0,0,0,3.29-9.12,12.6,12.6,0,0,0-3.29-9.06,11.06,11.06,0,0,0-8.55-3.53h-8.08v9.82h8.2v6.64h-8.2V64.9Z"/></svg>